HIERARCHY
ROOT root
{
	OFFSET	0	13.1	24.9
	CHANNELS 6  Xposition Yposition Zposition Xrotation Yrotation Zrotation
	JOINT spine_1
	{
		OFFSET	0	9.99999	0
		CHANNELS 3  Xrotation Yrotation Zrotation
		JOINT spine_2
		{
			OFFSET	0	112	-10
			CHANNELS 3  Xrotation Yrotation Zrotation
			JOINT spine_3
			{
				OFFSET	0	206.5	19.3
				CHANNELS 3  Xrotation Yrotation Zrotation
				JOINT spine_4
				{
					OFFSET	0	110.4	14.6
					CHANNELS 3  Xrotation Yrotation Zrotation
					JOINT neck_1
					{
						OFFSET	0	71.8	-50.3
						CHANNELS 3  Xrotation Yrotation Zrotation
						JOINT neck_2
						{
							OFFSET	0	86.2	-25.8
							CHANNELS 3  Xrotation Yrotation Zrotation
							JOINT head_ee
							{
								OFFSET	0	179.8	-8.7
								CHANNELS 3  Xrotation Yrotation Zrotation
								End Site
								{
									OFFSET	1	0	0
								}
							}
						}
					}
					JOINT left_clavicle
					{
						OFFSET	-43.2	22.4	-70.8
						CHANNELS 3  Xrotation Yrotation Zrotation
						JOINT left_shoulder
						{
							OFFSET	-93.9	-5.79999	48.7
							CHANNELS 3  Xrotation Yrotation Zrotation
							JOINT left_elbow
							{
								OFFSET	-291.4	-30.8	15.2
								CHANNELS 3  Xrotation Yrotation Zrotation
								JOINT left_lowarm_twist
								{
									OFFSET	-110.7	-3.89999	13.6
									CHANNELS 3  Xrotation Yrotation Zrotation
									JOINT left_hand
									{
										OFFSET	-110.7	-3.89999	13.6
										CHANNELS 3  Xrotation Yrotation Zrotation
										JOINT left_ee
										{
											OFFSET	-80.8	-5.10001	12.1
											CHANNELS 3  Xrotation Yrotation Zrotation
											End Site
											{
												OFFSET	1	0	0
											}
										}
									}
								}
							}
						}
					}
					JOINT right_clavicle
					{
						OFFSET	43.2	22.4	-70.8
						CHANNELS 3  Xrotation Yrotation Zrotation
						JOINT right_shoulder
						{
							OFFSET	93.9	-5.79999	48.7
							CHANNELS 3  Xrotation Yrotation Zrotation
							JOINT right_elbow
							{
								OFFSET	291.4	-30.8	15.2
								CHANNELS 3  Xrotation Yrotation Zrotation
								JOINT right_lowarm_twist
								{
									OFFSET	110.7	-3.89999	13.6
									CHANNELS 3  Xrotation Yrotation Zrotation
									JOINT right_hand
									{
										OFFSET	110.7	-3.89999	13.6
										CHANNELS 3  Xrotation Yrotation Zrotation
										JOINT right_ee
										{
											OFFSET	80.8	-5.10001	12.1
											CHANNELS 3  Xrotation Yrotation Zrotation
											End Site
											{
												OFFSET	1	0	0
											}
										}
									}
								}
							}
						}
					}
				}
			}
		}
	}
	JOINT left_hip
	{
		OFFSET	-82.8	-127.5	0.300001
		CHANNELS 3  Xrotation Yrotation Zrotation
		JOINT left_knee
		{
			OFFSET	-28.2	-396.7	2.2
			CHANNELS 3  Xrotation Yrotation Zrotation
			JOINT left_ankle
			{
				OFFSET	-11.7	-411.3	35.4
				CHANNELS 3  Xrotation Yrotation Zrotation
				JOINT left_toes
				{
					OFFSET	0	-60	-88.6
					CHANNELS 3  Xrotation Yrotation Zrotation
					JOINT left_foot_ee
					{
						OFFSET	-22.5	-16.5	-42.2
						CHANNELS 3  Xrotation Yrotation Zrotation
						End Site
						{
							OFFSET	1	0	0
						}
					}
				}
			}
		}
	}
	JOINT right_hip
	{
		OFFSET	82.8	-127.5	0.300001
		CHANNELS 3  Xrotation Yrotation Zrotation
		JOINT right_knee
		{
			OFFSET	28.2	-396.7	2.2
			CHANNELS 3  Xrotation Yrotation Zrotation
			JOINT right_ankle
			{
				OFFSET	11.7	-411.3	35.4
				CHANNELS 3  Xrotation Yrotation Zrotation
				JOINT right_toes
				{
					OFFSET	0	-60	-88.6
					CHANNELS 3  Xrotation Yrotation Zrotation
					JOINT right_foot_ee
					{
						OFFSET	22.5	-16.5	-42.2
						CHANNELS 3  Xrotation Yrotation Zrotation
						End Site
						{
							OFFSET	1	0	0
						}
					}
				}
			}
		}
	}
}
MOTION
Frames: 9
Frame Time: 0.02
1387.76 636.809 -1544.7 -93.806 83.5441 99.6815 2.12716 0.193337 -0.479688 2.12726 0.223469 -0.466413 2.1254 0.301127 -0.42048 2.12523 0.230941 -0.462759 -17.289 5.75564 1.25924 -17.4045 10.361 3.3207 -0.0 0.0 -0.0 2.76396 24.2245 6.52739 -30.6723 -12.469 64.3901 0.246116 -6.95129 0.0149481 -34.9622 -2.43202 3.67587 3.55591 22.7293 31.4921 -0.0 0.0 -0.0 11.3333 4.97577 -22.6987 16.034 13.5212 -71.8313 1.45877 35.8508 -0.471906 -80.1575 7.84182 -5.27759 -6.11113 -23.6664 26.7304 0.0 0.0 0.0 34.0286 -4.81163 -12.5066 2.07415 -0.0909532 -0.305261 -6.59445 -17.2708 1.0873 -18.4818 0.0 0.0 -0.0 0.0 -0.0 -18.8818 -17.9156 -13.0833 -2.11577 -0.0813147 -0.314499 39.2656 3.11689 4.84246 -9.55622 0.0 0.0 0.0 0.0 0.0 
1368.05 637.986 -1541.62 -83.3873 83.628 89.4843 2.20414 0.119911 -0.517006 2.20428 0.152566 -0.508328 2.20289 0.237944 -0.474402 2.20262 0.160036 -0.506026 -16.9784 5.80034 0.87098 -17.0996 10.6514 2.94527 -0.0 0.0 -0.0 2.87478 24.0752 6.67426 -30.2911 -11.9766 65.3141 0.27227 -7.68157 0.0182788 -34.7187 -2.4078 3.65613 3.675 23.3506 32.4491 -0.0 0.0 -0.0 11.328 5.01374 -22.6883 15.03 13.1356 -72.2775 1.45837 35.8434 -0.471672 -79.7295 7.78751 -5.2833 -5.85188 -23.6151 25.0787 0.0 0.0 0.0 32.6207 -4.65469 -13.2189 0.865119 -0.0365899 -0.127713 -5.64079 -17.2099 0.927849 -18.0039 0.0 0.0 -0.0 0.0 -0.0 -19.3346 -18.3197 -12.4608 -2.29857 -0.0877935 -0.341805 39.3267 2.47969 4.84043 -8.91423 0.0 0.0 0.0 0.0 0.0 
1342.88 639.662 -1537.61 -80.9795 83.9911 87.782 2.21646 -0.00947309 -0.591228 2.21666 0.0281668 -0.590633 2.21634 0.129464 -0.576958 2.21587 0.036721 -0.590163 -16.4977 5.87031 0.537919 -16.6212 10.9577 2.61237 -0.0 0.0 -0.0 2.74577 23.3991 6.47951 -28.8979 -11.746 65.2388 0.339399 -9.54399 0.0283331 -33.1288 -2.2518 3.52478 4.18542 22.0499 35.9443 -0.0 0.0 -0.0 11.1897 5.07708 -22.3887 12.9847 12.954 -71.8796 1.41707 35.0659 -0.447719 -78.999 7.6947 -5.2921 -5.24552 -20.929 23.2211 0.0 0.0 0.0 30.8752 -4.03674 -14.1922 -0.767887 0.0308561 0.113801 -0.984432 -18.303 0.16171 -16.4522 0.0 0.0 -0.0 0.0 -0.0 -19.6211 -18.4543 -11.6392 -7.68049 -0.239199 -1.15357 38.5072 2.13482 4.76436 -6.92195 0.0 0.0 0.0 0.0 0.0 
1319.26 639.193 -1532.93 -74.9035 84.465 82.0513 2.18813 -0.0634034 -0.670687 2.18838 -0.0205983 -0.673362 2.1886 0.0959959 -0.666803 2.18798 -0.0105154 -0.673595 -16.1564 5.09679 0.334427 -16.2472 9.58048 2.11044 -0.0 0.0 -0.0 3.01763 23.5686 6.8587 -28.1357 -11.8167 65.1797 0.377184 -10.5837 0.0349362 -32.5804 -2.19884 3.47848 4.40722 22.2896 37.6768 -0.0 0.0 -0.0 11.1281 5.14519 -22.2568 11.0666 12.9321 -72.1916 1.3914 34.5749 -0.433056 -78.0975 7.58002 -5.30131 -5.11961 -21.9719 21.6421 0.0 0.0 0.0 29.7693 -3.07807 -14.7649 -3.04084 0.113204 0.452888 2.23043 -17.5793 -0.360821 -15.1448 0.0 0.0 -0.0 0.0 -0.0 -19.8069 -18.7768 -10.8138 -9.99993 -0.28081 -1.50704 38.9906 1.35653 4.79946 -5.51169 0.0 0.0 0.0 0.0 0.0 
1301.86 640.7 -1524.52 -73.4839 84.4722 80.9818 2.22222 -0.0467521 -0.756765 2.22254 0.00149612 -0.758206 2.22248 0.131972 -0.746634 2.2217 0.0124023 -0.758106 -14.7886 4.56203 0.937417 -14.8417 8.16066 2.38387 -0.0 0.0 -0.0 3.61112 24.0479 7.67925 -25.712 -12.5104 63.9376 0.399716 -11.2003 0.0391939 -31.9022 -2.13398 3.42053 4.71864 22.6272 40.1829 -0.0 0.0 -0.0 11.0885 5.75571 -22.1876 8.91066 13.652 -70.74 1.40101 34.7594 -0.438525 -77.1863 7.46393 -5.30877 -4.86102 -21.1426 20.59 0.0 0.0 0.0 28.4715 -2.06836 -14.5017 -4.14526 0.14834 0.618738 8.7382 -17.2139 -1.37819 -14.7324 0.0 0.0 -0.0 0.0 -0.0 -19.946 -18.7892 -10.2192 -12.9724 -0.313164 -1.96193 37.3151 0.937178 4.64494 -4.55932 0.0 0.0 0.0 0.0 0.0 
1274.29 642.107 -1518.27 -68.3268 85.1738 76.0879 2.01705 -0.121479 -0.84589 2.01745 -0.0674086 -0.851905 2.01844 0.0832468 -0.850504 2.01743 -0.052114 -0.852977 -14.0336 5.02604 1.04859 -14.0908 8.94958 2.58215 -0.0 0.0 -0.0 3.83566 23.7306 7.98816 -23.9316 -11.7664 62.8336 0.503225 -13.9978 0.0617787 -31.0618 -2.05456 3.34767 4.86956 21.9958 41.321 -0.0 0.0 -0.0 10.617 5.47634 -21.1567 5.9103 13.4195 -70.1009 1.39918 34.7245 -0.437485 -76.0014 7.31276 -5.31569 -4.68331 -20.9093 19.6243 0.0 0.0 0.0 27.7539 -0.988355 -14.9917 -8.32165 0.252133 1.25111 12.6114 -17.4878 -1.96214 -13.3265 0.0 0.0 -0.0 0.0 -0.0 -20.683 -18.8964 -9.31993 -14.6743 -0.321051 -2.22293 37.0546 0.1014 4.61412 -4.70055 0.0 0.0 0.0 0.0 0.0 
1249.32 643.403 -1511.0 -71.7914 85.6704 79.4703 1.96326 -0.264902 -0.975338 1.96377 -0.202305 -0.990215 1.96729 -0.0243787 -1.01037 1.96591 -0.183635 -0.993847 -13.1042 4.53332 0.492046 -13.1485 8.3182 1.82953 -0.0 0.0 -0.0 4.11037 23.9122 8.36559 -22.8542 -11.8361 62.2621 0.539089 -14.952 0.0707434 -31.1191 -2.05993 3.35267 5.01859 22.1223 42.583 -0.0 0.0 -0.0 10.764 3.74835 -21.4235 4.23059 12.6309 -69.0827 1.33076 33.3921 -0.399164 -76.1862 7.33634 -5.31482 -4.60555 -21.35 18.8333 0.0 0.0 0.0 24.8458 -0.461502 -14.2887 -7.6567 0.238699 1.14996 16.8049 -18.2027 -2.57939 -12.7789 0.0 0.0 -0.0 0.0 -0.0 -18.799 -19.0648 -8.52143 -16.239 -0.321461 -2.46298 40.1132 -0.370906 4.88304 -4.14752 0.0 0.0 0.0 0.0 0.0 
1226.88 648.65 -1505.12 -76.7793 86.0402 84.7693 1.85214 -0.290052 -1.11268 1.8528 -0.218667 -1.12887 1.85716 -0.0138055 -1.14977 1.85537 -0.195205 -1.13317 -12.8584 4.41 0.436279 -12.8988 8.11035 1.72162 -0.0 0.0 -0.0 4.65405 23.6478 9.12371 -21.607 -11.9518 61.4106 0.587178 -16.2183 0.0836642 -31.1488 -2.06273 3.35527 5.1151 22.2799 43.4255 -0.0 0.0 -0.0 10.7341 2.39343 -21.3056 1.33988 11.6094 -68.4931 1.33154 33.4074 -0.39959 -76.1133 7.32704 -5.31517 -4.58644 -21.5863 18.553 0.0 0.0 0.0 23.1649 0.224821 -14.0029 -9.35116 0.270614 1.40801 21.0043 -18.1274 -3.15232 -11.5312 0.0 0.0 -0.0 0.0 -0.0 -18.7671 -19.0286 -8.87739 -17.8237 -0.315194 -2.70603 40.4898 -1.26668 4.90972 -4.35298 0.0 0.0 0.0 0.0 0.0 
1208.15 649.154 -1503.56 -86.2798 87.0652 94.8657 1.773 -0.486666 -1.20018 1.77371 -0.409315 -1.22871 1.78263 -0.181967 -1.28224 1.78053 -0.382174 -1.23742 -12.5011 4.25644 0.414218 -12.5363 7.82077 1.63042 -0.0 0.0 -0.0 5.22702 22.2966 9.9804 -20.5134 -12.051 60.7653 0.650249 -17.8546 0.102145 -30.9221 -2.04146 3.33544 5.21134 22.354 44.267 -0.0 0.0 -0.0 10.5904 0.903413 -20.93 -0.905973 10.679 -67.975 1.30483 32.8761 -0.38499 -75.4908 7.24756 -5.3177 -4.60407 -22.1 18.313 0.0 0.0 0.0 21.4341 1.10488 -14.3082 -10.1255 0.282655 1.52622 23.9741 -17.8471 -3.52989 -10.8537 0.0 0.0 -0.0 0.0 -0.0 -17.894 -19.0754 -8.86112 -19.659 -0.29954 -2.98718 40.2794 -1.97451 4.88834 -4.37175 0.0 0.0 0.0 0.0 0.0 
